# xmcd CD database file
#
# Track frame offsets:
#	150
#	10604
#	26749
#	41987
#	57077
#	70660
#	83280
#	101001
#	114817
#	125664
#	139693
#	150638
#	172674
#	192038
#
# Disc length: 2831 seconds
#
# Revision: 2
# Processed by: cddbd v1.5.1PL0 Copyright (c) Steve Scherf et al.
# Submitted via: CDex 1.50
#
DISCID=a20b0d0e
DTITLE=Illés - Illés '96 disk 1
DYEAR=1996
DGENRE=
TTITLE0=Nyitány
TTITLE1=Kéglidal
TTITLE2=Légy jó kicsit hozzám
TTITLE3=Az utcán
TTITLE4=Még fáj minden csók
TTITLE5=Ó, kisleány
TTITLE6=Az ész a fontos, nem a haj
TTITLE7=Élünk és meghalunk
TTITLE8=Sárika
TTITLE9=Szemétdomb
TTITLE10=A legjobb dobos a világon
TTITLE11=Keresem a szót
TTITLE12=Sárga rózsa
TTITLE13=Kis virág
EXTD=Hungaroton HCD 37870\n(P) 1996 YEAR: 1996
EXTT0=
EXTT1=
EXTT2=
EXTT3=
EXTT4=
EXTT5=
EXTT6=
EXTT7=
EXTT8=
EXTT9=
EXTT10=
EXTT11=
EXTT12=
EXTT13=
PLAYORDER=
